<?xml version="1.0" encoding="utf-8"?>
<svg viewBox="0 0 158.954 157.731" xmlns="http://www.w3.org/2000/svg">
  <g transform="matrix(0.9999999999999999, 0, 0, 0.9999999999999999, 0, 0)">
    <path d="M158.954 40.4821L158.954 99.3968C158.954 118.943 147.686 130.449 127.849 130.449L74.1704 130.449L47.6391 154.105C45.0417 156.505 43.3381 157.731 41.0215 157.731C37.7594 157.731 35.713 155.362 35.713 151.727L35.713 130.449L31.1046 130.449C11.2676 130.449 0 119.026 0 99.3968L0 40.4821C0 20.853 11.2676 9.37751 31.1046 9.37751L127.849 9.37751C147.686 9.37751 158.954 20.9359 158.954 40.4821ZM82.7662 40.9884C79.5225 66.2231 75.9591 69.8179 51.3321 72.5067C49.7634 72.6672 48.6773 73.8417 48.6773 75.2979C48.6773 76.7541 49.7634 77.904 51.3321 78.0891C75.9822 81.3512 79.3366 84.444 82.7662 109.607C83.0316 111.112 84.1743 112.15 85.5505 112.15C86.9831 112.15 88.0774 111.112 88.3347 109.607C91.5784 84.3727 95.1417 80.7779 119.769 78.0891C121.338 77.9286 122.424 76.7541 122.424 75.2979C122.424 73.8417 121.338 72.6672 119.769 72.5067C95.1417 69.8179 91.5784 66.2231 88.3347 40.9884C88.0774 39.4839 86.9831 38.4462 85.5505 38.4462C84.1743 38.4462 83.0316 39.4839 82.7662 40.9884ZM52.4067 25.3775C50.7847 38.0032 49.0029 39.8017 36.6884 41.147C35.904 41.2273 35.3609 41.8149 35.3609 42.5436C35.3609 43.2721 35.904 43.8475 36.6884 43.9401C49.0144 45.5721 50.6918 47.1197 52.4067 59.7096C52.5393 60.4623 53.1108 60.9815 53.7989 60.9815C54.5153 60.9815 55.0625 60.4623 55.1911 59.7096C56.8131 47.084 58.595 45.2854 70.9093 43.9401C71.6939 43.8597 72.2369 43.2721 72.2369 42.5436C72.2369 41.8149 71.6939 41.2273 70.9093 41.147C58.595 39.8017 56.8131 38.0032 55.1911 25.3775C55.0625 24.6247 54.5153 24.1055 53.7989 24.1055C53.1108 24.1055 52.5393 24.6247 52.4067 25.3775Z" fill="#ffffff"/>
  </g>
</svg>