<?xml version="1.0" encoding="utf-8"?>
<svg viewBox="0 0 158.954 157.108" xmlns="http://www.w3.org/2000/svg">
  <g transform="matrix(1, 0, 0, 1, 1.7763568394002505e-15, 0)">
    <path d="M42.0193 157.108C44.8451 157.108 46.8189 155.622 50.0399 152.744L75.8333 130.19L127.849 130.19C147.686 130.19 158.954 118.631 158.954 99.085L158.954 40.1703C158.954 20.6242 147.686 9.06572 127.849 9.06572L31.1046 9.06572C11.2676 9.06572 0 20.5412 0 40.1703L0 99.085C0 118.714 11.2676 130.19 31.1046 130.19L35.765 130.19L35.765 149.908C35.765 154.323 38.0816 157.108 42.0193 157.108ZM44.2739 146.884L44.2739 125.4C44.2739 122.314 43.0896 121.13 40.0039 121.13L31.1875 121.13C16.6804 121.13 9.05956 113.104 9.05956 99.002L9.05956 40.2533C9.05956 26.1618 16.6804 18.1772 31.1875 18.1772L127.766 18.1772C142.107 18.1772 149.894 26.1618 149.894 40.2533L149.894 99.002C149.894 113.104 142.107 121.13 127.766 121.13L75.791 121.13C72.5084 121.13 70.7943 121.66 68.3846 124.049Z" fill="#ffffff"/>
    <path d="M85.5505 111.838C86.9831 111.838 88.0774 110.8 88.3347 109.296C91.5784 84.0609 95.1417 80.4661 119.769 77.7773C121.338 77.6169 122.424 76.4423 122.424 74.9862C122.424 73.5299 121.338 72.3555 119.769 72.1949C95.1417 69.5061 91.5784 65.9113 88.3347 40.6767C88.0774 39.1722 86.9831 38.1344 85.5505 38.1344C84.1743 38.1344 83.0316 39.1722 82.7662 40.6767C79.5225 65.9113 75.9591 69.5061 51.3321 72.1949C49.7634 72.3555 48.6773 73.5299 48.6773 74.9862C48.6773 76.4423 49.7634 77.5923 51.3321 77.7773C75.9822 81.0394 79.3366 84.1322 82.7662 109.296C83.0316 110.8 84.1743 111.838 85.5505 111.838ZM53.7989 60.6697C54.5153 60.6697 55.0625 60.1506 55.1911 59.3978C56.8131 46.7722 58.595 44.9736 70.9093 43.6283C71.6939 43.5479 72.2369 42.9603 72.2369 42.2318C72.2369 41.5031 71.6939 40.9155 70.9093 40.8352C58.595 39.4899 56.8131 37.6914 55.1911 25.0657C55.0625 24.313 54.5153 23.7937 53.7989 23.7937C53.1108 23.7937 52.5393 24.313 52.4067 25.0657C50.7847 37.6914 49.0029 39.4899 36.6884 40.8352C35.904 40.9155 35.3609 41.5031 35.3609 42.2318C35.3609 42.9603 35.904 43.5357 36.6884 43.6283C49.0144 45.2603 50.6918 46.8079 52.4067 59.3978C52.5393 60.1506 53.1108 60.6697 53.7989 60.6697Z" fill="#ffffff"/>
  </g>
</svg>