<?xml version="1.0" encoding="utf-8"?>
<svg version="1.1" width="176.731" height="176.167" xmlns="http://www.w3.org/2000/svg">
  <defs/>
  <g>
    <path d="M100.379 176.088C103.244 176.088 105.433 174.013 105.948 171.004C112.435 120.534 119.562 113.345 168.816 107.967C171.954 107.646 174.125 105.297 174.125 102.385C174.125 99.4723 171.954 97.1234 168.816 96.8023C119.562 91.4247 112.435 84.2351 105.948 33.7658C105.433 30.7568 103.244 28.6813 100.379 28.6813C97.6268 28.6813 95.3413 30.7568 94.8106 33.7658C88.3233 84.2351 81.1965 91.4247 31.9424 96.8023C28.8049 97.1234 26.6327 99.4723 26.6327 102.385C26.6327 105.297 28.8049 107.597 31.9424 107.967C81.2426 114.491 87.9514 120.677 94.8106 171.004C95.3413 174.013 97.6268 176.088 100.379 176.088ZM36.8761 73.752C38.3087 73.752 39.4031 72.7136 39.6604 71.2081C42.9044 45.9569 46.4681 42.3597 71.0969 39.6692C72.666 39.5084 73.752 38.3332 73.752 36.8761C73.752 35.4188 72.666 34.2436 71.0969 34.083C46.4681 31.3923 42.9044 27.7953 39.6604 2.54394C39.4031 1.03843 38.3087 0 36.8761 0C35.4997 0 34.3569 1.03843 34.0916 2.54394C30.8476 27.7953 27.2841 31.3923 2.65508 34.083C1.08627 34.2436-2.22045e-15 35.4188-2.22045e-15 36.8761C-2.22045e-15 38.3332 1.08627 39.4839 2.65508 39.6692C27.307 42.9331 30.6617 46.0283 34.0916 71.2081C34.3569 72.7136 35.4997 73.752 36.8761 73.752Z" fill="#ffffff"/>
  </g>
</svg>