<?xml version="1.0" encoding="utf-8"?>
<svg viewBox="0 0 176.972 185.545" xmlns="http://www.w3.org/2000/svg">
  <g>
    <path d="M134.681 20.9857L42.2913 20.9857C42.5718 15.0376 46.3186 11.612 52.5425 11.612L124.43 11.612C130.654 11.612 134.4 15.0376 134.681 20.9857Z" fill="#ffffff"/>
    <path d="M149.662 41.9168C147.321 41.5443 144.838 41.3601 142.228 41.3601L34.8218 41.3601C32.1835 41.3601 29.6748 41.5466 27.3099 41.9219C28.0945 34.8384 32.8088 30.8996 40.5755 30.8996L136.397 30.8996C144.162 30.8996 148.875 34.8365 149.662 41.9168Z" fill="#ffffff"/>
    <path d="M165.189 75.8096L165.189 151.018C165.189 166.102 157.498 173.685 142.228 173.685L34.8218 173.685C19.4737 173.685 11.8607 166.134 11.8607 151.018L11.8607 75.8096C11.8607 60.6786 19.4737 53.1432 34.8218 53.1432L142.228 53.1432C157.498 53.1432 165.189 60.7878 165.189 75.8096ZM75.8012 77.8017L68.2174 112.974L54.3794 112.974C52.3057 112.974 50.6645 114.618 50.6645 116.689C50.6645 118.716 52.3057 120.315 54.3794 120.315L70.6844 120.315C72.8322 120.315 74.2192 119.294 74.678 117.348L79.0186 97.2811L87.717 149.958C88.3213 153.714 94.0619 153.689 94.8205 149.977L103.04 110.848L104.217 116.975C104.632 119.186 106 120.315 108.255 120.315L122.589 120.315C124.663 120.315 126.304 118.716 126.304 116.689C126.304 114.554 124.707 112.974 122.589 112.974L110.294 112.974L106.326 95.11C105.529 91.5064 100.082 91.5443 99.2787 95.2427L91.255 131.174L82.5507 77.8397C81.9906 74.1717 76.5978 74.0832 75.8012 77.8017Z" fill="#ffffff"/>
  </g>
</svg>