<?xml version="1.0" encoding="UTF-8"?>
<svg width="158px" height="158px" viewBox="0 0 158 158" version="1.1" xmlns="http://www.w3.org/2000/svg" xmlns:xlink="http://www.w3.org/1999/xlink">
    <title>Slice 1</title>
    <g id="Page-1" stroke="none" stroke-width="1" fill="none" fill-rule="evenodd">
        <g id="cross" fill-rule="nonzero">
            <rect id="Rectangle" fill="#000000" opacity="0" x="0" y="0" width="157.178" height="157.397"></rect>
            <path d="M0,90.5273 C0,104.297 6.66504,111.035 20.2148,111.035 L46.2158,111.035 L46.2158,137.036 C46.2158,150.586 52.9541,157.251 66.7236,157.251 L90.4541,157.251 C104.224,157.251 110.962,150.586 110.962,137.036 L110.962,111.035 L136.963,111.035 C150.513,111.035 157.178,104.297 157.178,90.5273 L157.178,66.7969 C157.178,53.0273 150.513,46.2891 136.963,46.2891 L110.962,46.2891 L110.962,20.2148 C110.962,6.66504 104.224,0 90.4541,0 L66.7236,0 C52.9541,0 46.2158,6.66504 46.2158,20.2148 L46.2158,46.2891 L20.2148,46.2891 C6.66504,46.2891 0,53.0273 0,66.7969 L0,90.5273 Z M11.792,90.3076 L11.792,67.0166 C11.792,61.084 14.8682,58.0811 20.874,58.0811 L58.0078,58.0811 L58.0078,20.874 C58.0078,14.8682 61.0107,11.792 66.9434,11.792 L90.2344,11.792 C96.167,11.792 99.1699,14.8682 99.1699,20.874 L99.1699,58.0811 L136.304,58.0811 C142.31,58.0811 145.386,61.084 145.386,67.0166 L145.386,90.3076 C145.386,96.2402 142.31,99.2432 136.304,99.2432 L99.1699,99.2432 L99.1699,136.45 C99.1699,142.456 96.167,145.459 90.2344,145.459 L66.9434,145.459 C61.0107,145.459 58.0078,142.456 58.0078,136.45 L58.0078,99.2432 L20.874,99.2432 C14.8682,99.2432 11.792,96.2402 11.792,90.3076 Z" id="Shape" fill="#FFFFFF"></path>
        </g>
    </g>
</svg>