<?xml version="1.0" encoding="UTF-8"?>
<svg width="135px" height="135px" viewBox="0 0 135 135" version="1.1" xmlns="http://www.w3.org/2000/svg" xmlns:xlink="http://www.w3.org/1999/xlink">
    <title>Slice 1</title>
    <g id="Page-1" stroke="none" stroke-width="1" fill="none" fill-rule="evenodd">
        <g id="plus3-symbol" fill-rule="nonzero">
            <rect id="Rectangle" fill="#000000" opacity="0" x="0" y="0" width="134.031" height="134.669"></rect>
            <path d="M0.436824,64.0174 C-1.31831,71.0552 2.33743,76.9561 9.44028,78.7265 L37.0995,85.6227 L30.1861,113.347 C28.4157,120.452 31.926,126.383 38.9637,128.138 L63.3883,134.229 C70.428,135.984 76.3116,132.393 78.0821,125.288 L84.9954,97.5641 L112.706,104.474 C119.809,106.246 125.743,102.736 127.496,95.698 L133.59,71.26 C135.345,64.2203 131.754,58.3367 124.65,56.5662 L96.9388,49.6567 L103.833,22.0109 C105.603,14.9061 102.095,8.97461 95.0554,7.21948 L70.6309,1.12913 C63.5912,-0.62601 57.7075,2.96465 55.9371,10.0694 L49.0448,37.7152 L21.3205,30.8019 C14.2157,29.0314 8.28422,32.5398 6.52909,39.5795 L0.436824,64.0174 Z M30.2244,89.6784 C30.6608,90.4038 30.7163,91.3551 30.2991,92.358 L27.6022,98.858 C27.1773,99.882 26.3447,100.762 25.3456,101.363 C24.3446,101.964 23.1751,102.286 22.0727,102.181 L15.0674,101.511 C13.986,101.407 13.1726,100.912 12.7362,100.186 C12.2998,99.459 12.2443,98.5077 12.6615,97.5067 L15.3584,91.0048 C15.7833,89.9828 16.6159,89.1004 17.615,88.4994 C18.616,87.8984 19.7854,87.5788 20.8879,87.684 L27.8932,88.3539 C28.9746,88.4573 29.788,88.953 30.2244,89.6784 Z M89.0474,104.345 C88.322,104.782 87.8262,105.595 87.7229,106.675 L87.053,113.682 C86.9477,114.782 87.2673,115.952 87.8683,116.953 C88.4693,117.954 89.3517,118.785 90.3738,119.21 L96.8756,121.908 C97.8766,122.324 98.8279,122.268 99.5552,121.832 C100.281,121.395 100.776,120.582 100.88,119.5 L101.55,112.495 C101.655,111.393 101.333,110.223 100.732,109.224 C100.131,108.223 99.249,107.391 98.2269,106.966 L91.727,104.269 C90.724,103.854 89.7728,103.909 89.0474,104.345 Z M34.3127,13.6065 C33.5873,14.0429 33.0916,14.8563 32.9882,15.9358 L32.3183,22.943 C32.2131,24.0455 32.5327,25.2149 33.1337,26.214 C33.7347,27.215 34.617,28.0476 35.641,28.4706 L42.141,31.1694 C43.1439,31.5847 44.0932,31.5292 44.8206,31.0928 C45.546,30.6564 46.0417,29.843 46.1451,28.7635 L46.815,21.7563 C46.9202,20.6538 46.5987,19.4844 45.9977,18.4853 C45.3967,17.4843 44.5162,16.6517 43.4923,16.2287 L36.9923,13.5299 C35.9894,13.1146 35.0381,13.1701 34.3127,13.6065 Z M103.689,45.6162 C103.253,44.8908 103.198,43.9396 103.615,42.9366 L106.312,36.4367 C106.737,35.4146 107.569,34.5323 108.568,33.9313 C109.569,33.3303 110.739,33.0087 111.841,33.114 L118.846,33.7839 C119.926,33.8872 120.741,34.383 121.178,35.1103 C121.614,35.8357 121.668,36.7869 121.252,37.7899 L118.556,44.2898 C118.131,45.3119 117.298,46.1943 116.299,46.7953 C115.298,47.3963 114.128,47.7159 113.026,47.6106 L106.021,46.9407 C104.939,46.8374 104.126,46.3436 103.689,45.6162 Z" id="Shape" fill="#FFFFFF"></path>
        </g>
    </g>
</svg>