<?xml version="1.0" encoding="utf-8"?>
<svg viewBox="0 0 176.972 185.545" xmlns="http://www.w3.org/2000/svg">
  <g>
    <path d="M134.681 20.9857L42.2913 20.9857C42.5718 15.0376 46.3186 11.612 52.5425 11.612L124.43 11.612C130.654 11.612 134.4 15.0376 134.681 20.9857Z" fill="#ffffff" fill-opacity="0.85"/>
    <path d="M149.662 41.9168C147.321 41.5443 144.838 41.3601 142.228 41.3601L34.8218 41.3601C32.1835 41.3601 29.6748 41.5466 27.3099 41.9219C28.0945 34.8384 32.8088 30.8996 40.5755 30.8996L136.397 30.8996C144.162 30.8996 148.875 34.8365 149.662 41.9168Z" fill="#ffffff" fill-opacity="0.85"/>
    <path d="M165.189 75.8096L165.189 151.018C165.189 166.102 157.498 173.685 142.228 173.685L34.8218 173.685C19.4737 173.685 11.8607 166.134 11.8607 151.018L11.8607 75.8096C11.8607 60.6786 19.4737 53.1432 34.8218 53.1432L142.228 53.1432C157.498 53.1432 165.189 60.7878 165.189 75.8096ZM53.359 101.506C53.1566 101.998 53.0615 102.528 53.0792 103.061C53.0869 111.709 53.0869 120.358 53.0792 129.006C53.0703 130.038 53.2738 131.061 53.6753 132.01C54.4527 133.832 55.5863 135.37 57.3083 136.405C65.3021 141.203 73.2914 146 81.2775 150.796C81.6413 151.029 82.0328 151.215 82.4431 151.351C82.6792 151.422 82.9242 151.469 83.1635 151.527L83.7891 151.526C83.809 151.511 83.8311 151.5 83.8554 151.492C84.6362 151.361 85.1461 150.899 85.4469 150.184C85.6603 149.678 85.7046 149.144 85.7046 148.604C85.7211 145.051 85.7355 141.498 85.7493 137.945C85.7709 132.732 85.7809 127.518 85.8174 122.304C85.8373 121.114 85.5862 119.935 85.0841 118.857C84.2193 117.011 82.9623 115.529 81.1591 114.513C78.1487 112.816 75.1638 111.078 72.1678 109.36C67.2187 106.519 62.2707 103.678 57.3249 100.836C56.8482 100.548 56.3251 100.346 55.7799 100.235C54.7104 100.039 53.7991 100.513 53.359 101.506ZM121.374 100.22C120.734 100.288 120.166 100.542 119.616 100.857C111.675 105.432 103.725 109.995 95.7652 114.547C94.5564 115.232 93.5245 116.188 92.7493 117.34C91.7329 118.852 91.1301 120.485 91.1578 122.347C91.2076 125.572 91.1954 128.796 91.2076 132.02C91.2279 137.379 91.2485 142.737 91.27 148.096C91.2761 148.64 91.2518 149.187 91.3834 149.721C91.5869 150.528 92.0038 151.157 92.8377 151.429C92.9539 151.466 93.0766 151.493 93.1905 151.527L93.8176 151.527C94.0012 151.482 94.1925 151.503 94.3761 151.454C94.886 151.298 95.3715 151.073 95.8194 150.786C103.621 146.095 111.42 141.41 119.218 136.733C120.213 136.136 121.126 135.462 121.849 134.544C122.765 133.384 123.441 132.109 123.781 130.663C123.855 130.367 123.848 130.066 123.895 129.771L123.895 102.587C123.855 102.383 123.824 102.176 123.773 101.974C123.477 100.798 122.624 100.094 121.374 100.22ZM87.0872 74.1337C85.85 74.2521 84.6692 74.5706 83.5825 75.1966C78.7547 77.9771 73.9282 80.7576 69.1011 83.5381C65.3662 85.687 61.6346 87.8371 57.9063 89.9882C57.3984 90.2669 56.9524 90.6463 56.595 91.102C55.8989 92.0244 55.8856 93.0972 56.5618 94.0351C56.9579 94.5826 57.4825 94.9741 58.0602 95.3147C66.61 100.274 75.1511 105.249 83.681 110.24C85.2226 111.136 86.9744 111.607 88.7583 111.604C89.1688 111.602 89.5794 111.578 89.9877 111.533C91.1718 111.424 92.3194 111.066 93.3563 110.486C97.4752 108.113 101.593 105.741 105.711 103.37L118.91 95.766C119.36 95.5193 119.772 95.2052 120.129 94.8358C121.075 93.8172 121.121 92.5542 120.243 91.4747C119.848 91.0168 119.374 90.6341 118.842 90.3455C110.507 85.4935 102.167 80.6425 93.8233 75.7905C93.1178 75.3835 92.4334 74.9444 91.661 74.6713C90.1958 74.157 88.6332 73.9734 87.0872 74.1337Z" fill="#ffffff" fill-opacity="0.85"/>
  </g>
</svg>